<mxfile host="app.diagrams.net" agent="Mozilla/5.0 (Windows NT 10.0; Win64; x64) AppleWebKit/537.36 (KHTML, like Gecko) Chrome/140.0.0.0 Safari/537.36" version="28.2.5">
  <diagram name="Page-1" id="MleJp-_et98eEY97pdTK">
    <mxGraphModel dx="1106" dy="565" grid="1" gridSize="10" guides="1" tooltips="1" connect="1" arrows="1" fold="1" page="1" pageScale="1" pageWidth="2336" pageHeight="1654" math="0" shadow="0">
      <root>
        <mxCell id="0" />
        <mxCell id="1" parent="0" />
        <mxCell id="G_xwv9elseuPE5ZvxZ6--1" value="Donor" style="rounded=0;whiteSpace=wrap;html=1;" vertex="1" parent="1">
          <mxGeometry x="340" y="220" width="120" height="60" as="geometry" />
        </mxCell>
        <mxCell id="G_xwv9elseuPE5ZvxZ6--2" value="Donation_and_Requests" style="rounded=0;whiteSpace=wrap;html=1;" vertex="1" parent="1">
          <mxGeometry x="470" y="130" width="140" height="60" as="geometry" />
        </mxCell>
        <mxCell id="G_xwv9elseuPE5ZvxZ6--3" value="Doctor" style="rounded=0;whiteSpace=wrap;html=1;" vertex="1" parent="1">
          <mxGeometry x="370" y="360" width="120" height="60" as="geometry" />
        </mxCell>
        <mxCell id="G_xwv9elseuPE5ZvxZ6--4" value="Blood_Inventory" style="rounded=0;whiteSpace=wrap;html=1;" vertex="1" parent="1">
          <mxGeometry x="650" y="210" width="120" height="60" as="geometry" />
        </mxCell>
        <mxCell id="G_xwv9elseuPE5ZvxZ6--5" value="Blood_banks_and_avalilability" style="rounded=0;whiteSpace=wrap;html=1;" vertex="1" parent="1">
          <mxGeometry x="560" y="360" width="170" height="60" as="geometry" />
        </mxCell>
      </root>
    </mxGraphModel>
  </diagram>
</mxfile>
